<?xml version="1.0" standalone="no"?>
<!DOCTYPE svg PUBLIC "-//W3C//DTD SVG 20010904//EN"
 "http://www.w3.org/TR/2001/REC-SVG-20010904/DTD/svg10.dtd">
<svg version="1.0" xmlns="http://www.w3.org/2000/svg"
 width="500.000000pt" height="490.000000pt" viewBox="0 0 500.000000 490.000000"
 preserveAspectRatio="xMidYMid meet">

<g transform="translate(0.000000,490.000000) scale(0.100000,-0.100000)"
fill="#000000" stroke="none">
<path d="M1405 4166 c-38 -8 -99 -24 -135 -36 -221 -74 -294 -179 -424 -605
-83 -274 -119 -416 -166 -663 l-31 -162 3 -408 4 -407 27 -89 c16 -50 42 -123
59 -164 54 -131 162 -222 297 -254 l50 -11 57 -134 c31 -74 54 -136 51 -139
-3 -3 -59 -27 -124 -54 -142 -57 -337 -154 -444 -220 -147 -91 -359 -262 -526
-424 l-103 -99 0 -149 0 -148 159 0 158 0 37 59 c190 309 650 684 1018 830
238 94 596 164 978 191 232 16 229 17 135 -32 -314 -161 -526 -349 -710 -628
-63 -96 -175 -301 -210 -383 l-15 -37 243 0 242 0 19 53 c76 217 258 494 428
653 182 168 423 285 722 351 l121 27 838 3 837 4 0 50 0 49 -200 0 -200 0 0
55 c0 42 4 55 15 55 30 0 35 39 35 297 0 212 -3 262 -15 280 -15 22 -92 44
-220 63 -161 24 -417 105 -546 172 -86 44 -247 172 -301 239 -93 116 -149 218
-221 399 -84 213 -118 323 -218 709 -66 250 -111 406 -131 444 -62 124 -169
206 -325 249 -75 21 -97 22 -638 24 -431 2 -576 0 -630 -10z m603 -123 c79
-37 116 -153 77 -237 -54 -113 -225 -131 -300 -32 -77 102 -33 243 86 281 48
15 85 12 137 -12z m-158 -465 c0 -18 -38 -431 -45 -495 l-6 -53 -460 0 c-252
0 -459 2 -459 5 0 4 131 485 146 538 5 16 33 17 415 17 321 0 409 -3 409 -12z
m964 -220 c10 -128 20 -254 23 -280 l6 -48 -456 0 c-251 0 -458 3 -460 8 -3 5
47 537 52 550 1 1 185 2 409 2 l408 0 18 -232z m613 -1008 c58 -84 172 -201
248 -256 76 -55 195 -110 345 -159 135 -44 360 -95 418 -95 60 0 62 -3 62
-108 l0 -95 -133 6 c-246 12 -465 49 -642 108 -111 37 -298 133 -387 199 l-68
50 0 312 1 313 52 -100 c29 -55 75 -134 104 -175z m-2273 -71 c21 -6 59 -30
83 -53 127 -120 58 -332 -114 -353 -129 -15 -233 77 -233 206 0 87 54 165 135
195 49 18 79 19 129 5z m1591 -23 c130 -71 138 -265 14 -351 -110 -77 -272
-21 -315 107 -59 180 132 336 301 244z"/>
</g>
</svg>
